<svg width="174" height="266" viewBox="0 0 174 266" fill="none" xmlns="http://www.w3.org/2000/svg">
<g filter="url(#filter0_d_7_1091)">
<rect width="174" height="266" rx="8" fill="#48C292"/>
</g>
<mask id="mask0_7_1091" style="mask-type:alpha" maskUnits="userSpaceOnUse" x="0" y="0" width="174" height="266">
<rect width="174" height="266" rx="8" fill="#48C292"/>
</mask>
<g mask="url(#mask0_7_1091)">
<path d="M3 -7L17 13L3 33L-11 13L3 -7Z" fill="#4BB78C"/>
<path d="M31 -7L45 13L31 33L17 13L31 -7Z" fill="#2CB17C"/>
<path d="M59 -7L73 13L59 33L45 13L59 -7Z" fill="#4BB78C"/>
<path d="M87 -7L101 13L87 33L73 13L87 -7Z" fill="#2CB17C"/>
<path d="M115 -7L129 13L115 33L101 13L115 -7Z" fill="#4BB78C"/>
<path d="M143 -7L157 13L143 33L129 13L143 -7Z" fill="#2CB17C"/>
<path d="M171 -7L185 13L171 33L157 13L171 -7Z" fill="#4BB78C"/>
<path d="M3 33L17 53L3 73L-11 53L3 33Z" fill="#2CB17C"/>
<path d="M31 33L45 53L31 73L17 53L31 33Z" fill="#4BB78C"/>
<path d="M59 33L73 53L59 73L45 53L59 33Z" fill="#2CB17C"/>
<path d="M87 33L101 53L87 73L73 53L87 33Z" fill="#4BB78C"/>
<path d="M115 33L129 53L115 73L101 53L115 33Z" fill="#2CB17C"/>
<path d="M143 33L157 53L143 73L129 53L143 33Z" fill="#4BB78C"/>
<path d="M171 33L185 53L171 73L157 53L171 33Z" fill="#2CB17C"/>
<path d="M3 73L17 93L3 113L-11 93L3 73Z" fill="#4BB78C"/>
<path d="M31 73L45 93L31 113L17 93L31 73Z" fill="#2CB17C"/>
<path d="M59 73L73 93L59 113L45 93L59 73Z" fill="#4BB78C"/>
<path d="M87 73L101 93L87 113L73 93L87 73Z" fill="#2CB17C"/>
<path d="M115 73L129 93L115 113L101 93L115 73Z" fill="#4BB78C"/>
<path d="M143 73L157 93L143 113L129 93L143 73Z" fill="#2CB17C"/>
<path d="M171 73L185 93L171 113L157 93L171 73Z" fill="#4BB78C"/>
<path d="M3 113L17 133L3 153L-11 133L3 113Z" fill="#2CB17C"/>
<path d="M31 113L45 133L31 153L17 133L31 113Z" fill="#4BB78C"/>
<path d="M59 113L73 133L59 153L45 133L59 113Z" fill="#2CB17C"/>
<path d="M87 113L101 133L87 153L73 133L87 113Z" fill="#4BB78C"/>
<path d="M115 113L129 133L115 153L101 133L115 113Z" fill="#2CB17C"/>
<path d="M143 113L157 133L143 153L129 133L143 113Z" fill="#4BB78C"/>
<path d="M171 113L185 133L171 153L157 133L171 113Z" fill="#2CB17C"/>
<path d="M3 153L17 173L3 193L-11 173L3 153Z" fill="#4BB78C"/>
<path d="M31 153L45 173L31 193L17 173L31 153Z" fill="#2CB17C"/>
<path d="M59 153L73 173L59 193L45 173L59 153Z" fill="#4BB78C"/>
<path d="M87 153L101 173L87 193L73 173L87 153Z" fill="#2CB17C"/>
<path d="M115 153L129 173L115 193L101 173L115 153Z" fill="#4BB78C"/>
<path d="M143 153L157 173L143 193L129 173L143 153Z" fill="#2CB17C"/>
<path d="M171 153L185 173L171 193L157 173L171 153Z" fill="#4BB78C"/>
<path d="M3 193L17 213L3 233L-11 213L3 193Z" fill="#2CB17C"/>
<path d="M31 193L45 213L31 233L17 213L31 193Z" fill="#4BB78C"/>
<path d="M59 193L73 213L59 233L45 213L59 193Z" fill="#2CB17C"/>
<path d="M87 193L101 213L87 233L73 213L87 193Z" fill="#4BB78C"/>
<path d="M115 193L129 213L115 233L101 213L115 193Z" fill="#2CB17C"/>
<path d="M143 193L157 213L143 233L129 213L143 193Z" fill="#4BB78C"/>
<path d="M171 193L185 213L171 233L157 213L171 193Z" fill="#2CB17C"/>
<path d="M3 233L17 253L3 273L-11 253L3 233Z" fill="#4BB78C"/>
<path d="M31 233L45 253L31 273L17 253L31 233Z" fill="#2CB17C"/>
<path d="M59 233L73 253L59 273L45 253L59 233Z" fill="#4BB78C"/>
<path d="M87 233L101 253L87 273L73 253L87 233Z" fill="#2CB17C"/>
<path d="M115 233L129 253L115 273L101 253L115 233Z" fill="#4BB78C"/>
<path d="M143 233L157 253L143 273L129 253L143 233Z" fill="#2CB17C"/>
<path d="M171 233L185 253L171 273L157 253L171 233Z" fill="#4BB78C"/>
</g>
<rect x="13" y="14" width="148" height="237" rx="7" stroke="white" stroke-width="2"/>
<path d="M62.6913 234.432C62.6913 235.584 62.3393 236.44 61.6353 237C60.9393 237.56 60.0353 237.84 58.9233 237.84C58.1873 237.84 57.5033 237.712 56.8713 237.456C56.2473 237.208 55.7393 236.812 55.3473 236.268C54.9553 235.716 54.7593 235.024 54.7593 234.192V230.58C54.7593 229.74 54.9553 229.048 55.3473 228.504C55.7393 227.96 56.2513 227.564 56.8833 227.316C57.5153 227.06 58.2073 226.932 58.9593 226.932C59.4953 226.932 59.9913 226.988 60.4473 227.1C60.9113 227.204 61.2633 227.344 61.5033 227.52C61.6793 227.64 61.8153 227.788 61.9113 227.964C62.0153 228.132 62.0673 228.308 62.0673 228.492C62.0673 228.66 62.0273 228.812 61.9473 228.948C61.8513 229.124 61.7193 229.256 61.5513 229.344C61.3913 229.432 61.2193 229.476 61.0353 229.476C60.8833 229.476 60.7313 229.444 60.5793 229.38C60.4353 229.316 60.3073 229.26 60.1953 229.212C59.9153 229.108 59.5033 229.056 58.9593 229.056C58.6633 229.056 58.3793 229.12 58.1073 229.248C57.8433 229.368 57.6273 229.552 57.4593 229.8C57.2913 230.04 57.2073 230.336 57.2073 230.688V234.084C57.2073 234.604 57.3753 235.008 57.7113 235.296C58.0473 235.576 58.4513 235.716 58.9233 235.716C59.3633 235.716 59.7353 235.608 60.0393 235.392C60.3433 235.176 60.4953 234.868 60.4953 234.468V233.82C60.4953 233.7 60.4753 233.624 60.4353 233.592C60.4033 233.56 60.3313 233.544 60.2193 233.544H59.8233C59.5033 233.544 59.2633 233.444 59.1033 233.244C58.9433 233.044 58.8633 232.808 58.8633 232.536C58.8633 232.264 58.9433 232.024 59.1033 231.816C59.2713 231.6 59.5113 231.492 59.8233 231.492H60.9153C61.3953 231.492 61.7593 231.548 62.0073 231.66C62.2633 231.772 62.4393 231.956 62.5353 232.212C62.6393 232.46 62.6913 232.816 62.6913 233.28V234.432ZM68.2018 237.144C67.9698 237.368 67.6938 237.54 67.3738 237.66C67.0618 237.788 66.7298 237.852 66.3778 237.852H66.1138C65.7298 237.852 65.3498 237.772 64.9738 237.612C64.6058 237.46 64.2938 237.196 64.0378 236.82C63.7818 236.436 63.6538 235.936 63.6538 235.32C63.6538 234.424 63.9258 233.784 64.4698 233.4C65.0138 233.008 65.7218 232.812 66.5938 232.812H67.8298C67.8218 232.332 67.7178 232.008 67.5178 231.84C67.3258 231.664 67.0618 231.576 66.7258 231.576C66.4938 231.576 66.2258 231.62 65.9218 231.708C65.8258 231.74 65.7338 231.776 65.6458 231.816C65.5578 231.856 65.4618 231.9 65.3578 231.948C65.2298 232.012 65.0938 232.044 64.9498 232.044C64.7658 232.044 64.5938 231.996 64.4338 231.9C64.2738 231.804 64.1538 231.676 64.0738 231.516C64.0098 231.388 63.9778 231.248 63.9778 231.096C63.9778 230.928 64.0178 230.772 64.0978 230.628C64.1858 230.476 64.3058 230.344 64.4578 230.232C64.7538 230.016 65.1258 229.856 65.5738 229.752C66.0218 229.64 66.4698 229.584 66.9178 229.584C67.9258 229.584 68.7218 229.84 69.3058 230.352C69.8978 230.856 70.1938 231.78 70.1938 233.124V237.648H68.2978L68.2018 237.144ZM66.7378 234.576C66.2658 234.576 66.0298 234.82 66.0298 235.308C66.0298 235.772 66.2538 236.004 66.7018 236.004H66.8698C67.1178 236.004 67.3378 235.928 67.5298 235.776C67.7298 235.624 67.8298 235.408 67.8298 235.128V234.576H66.7378ZM71.451 230.772C71.451 230.396 71.567 230.104 71.799 229.896C72.039 229.68 72.327 229.572 72.663 229.572C72.903 229.572 73.123 229.632 73.323 229.752C73.531 229.864 73.683 230.028 73.779 230.244C74.003 230.028 74.251 229.864 74.523 229.752C74.803 229.632 75.087 229.572 75.375 229.572C75.591 229.572 75.779 229.604 75.939 229.668C76.139 229.756 76.295 229.892 76.407 230.076C76.527 230.252 76.587 230.46 76.587 230.7C76.587 231.036 76.487 231.308 76.287 231.516C76.087 231.724 75.835 231.828 75.531 231.828H75.159C74.775 231.828 74.471 231.92 74.247 232.104C74.023 232.28 73.903 232.528 73.887 232.848V237.648H71.451V230.772ZM82.1478 237.648L82.0278 236.868C81.7878 237.18 81.4958 237.42 81.1518 237.588C80.8158 237.764 80.4318 237.852 79.9998 237.852C79.1198 237.852 78.4118 237.596 77.8758 237.084C77.3398 236.572 77.0718 235.724 77.0718 234.54V232.884C77.0718 231.7 77.3398 230.852 77.8758 230.34C78.4118 229.828 79.1198 229.572 79.9998 229.572C80.6238 229.572 81.1638 229.76 81.6198 230.136V228.132C81.6198 227.756 81.7398 227.464 81.9798 227.256C82.2198 227.04 82.5078 226.932 82.8438 226.932C83.1798 226.932 83.4638 227.04 83.6958 227.256C83.9358 227.464 84.0558 227.756 84.0558 228.132V237.648H82.1478ZM79.5438 234.708C79.5438 235.076 79.6518 235.352 79.8678 235.536C80.0838 235.712 80.3198 235.8 80.5758 235.8C80.8318 235.8 81.0678 235.712 81.2838 235.536C81.5078 235.352 81.6198 235.076 81.6198 234.708V232.656C81.6198 232.312 81.5078 232.056 81.2838 231.888C81.0678 231.712 80.8318 231.624 80.5758 231.624C80.3198 231.624 80.0838 231.716 79.8678 231.9C79.6518 232.076 79.5438 232.348 79.5438 232.716V234.708ZM88.8889 237.84C88.2329 237.84 87.6249 237.728 87.0649 237.504C86.5129 237.288 86.0609 236.928 85.7089 236.424C85.3649 235.912 85.1929 235.248 85.1929 234.432V232.896C85.1929 232.096 85.3609 231.448 85.6969 230.952C86.0409 230.456 86.4689 230.104 86.9809 229.896C87.5009 229.68 88.0449 229.572 88.6129 229.572C89.6049 229.572 90.4049 229.86 91.0129 230.436C91.6209 231.012 91.9249 232.08 91.9249 233.64C91.9249 233.912 91.9049 234.16 91.8649 234.384H87.5689V234.396C87.5689 234.908 87.7049 235.272 87.9769 235.488C88.2569 235.704 88.5769 235.812 88.9369 235.812C89.2169 235.812 89.4369 235.8 89.5969 235.776C89.7569 235.752 89.9249 235.712 90.1009 235.656C90.2129 235.616 90.3329 235.576 90.4609 235.536C90.5889 235.488 90.7089 235.464 90.8209 235.464C91.0049 235.464 91.1649 235.504 91.3009 235.584C91.4449 235.664 91.5489 235.78 91.6129 235.932C91.6769 236.084 91.7089 236.224 91.7089 236.352C91.7089 236.552 91.6449 236.74 91.5169 236.916C91.3969 237.084 91.2249 237.232 91.0009 237.36C90.7929 237.488 90.4889 237.6 90.0889 237.696C89.6969 237.792 89.2969 237.84 88.8889 237.84ZM88.6249 231.516C87.9289 231.516 87.5769 231.948 87.5689 232.812H89.5969C89.6289 231.948 89.3049 231.516 88.6249 231.516ZM93.0604 230.772C93.0604 230.396 93.1764 230.104 93.4084 229.896C93.6484 229.68 93.9364 229.572 94.2724 229.572C94.5124 229.572 94.7324 229.632 94.9324 229.752C95.1404 229.864 95.2924 230.024 95.3884 230.232C95.6204 230.016 95.8884 229.852 96.1924 229.74C96.5044 229.628 96.8204 229.572 97.1404 229.572C98.9644 229.572 99.8764 230.668 99.8764 232.86V237.648H97.4044V232.716C97.4044 232.348 97.3044 232.076 97.1044 231.9C96.9124 231.716 96.6964 231.624 96.4564 231.624C96.2084 231.624 95.9844 231.716 95.7844 231.9C95.5924 232.076 95.4964 232.348 95.4964 232.716V237.648H93.0604V230.772ZM107.174 237.84C105.35 237.84 104.438 236.744 104.438 234.552V230.772C104.438 230.38 104.554 230.084 104.786 229.884C105.018 229.676 105.314 229.572 105.674 229.572C106.034 229.572 106.33 229.676 106.562 229.884C106.794 230.084 106.91 230.38 106.91 230.772V234.696C106.91 235.064 107.006 235.34 107.198 235.524C107.398 235.7 107.618 235.788 107.858 235.788C108.098 235.788 108.318 235.704 108.518 235.536C108.718 235.368 108.818 235.108 108.818 234.756V230.76C108.818 230.368 108.93 230.072 109.154 229.872C109.386 229.672 109.678 229.572 110.03 229.572C110.39 229.572 110.682 229.672 110.906 229.872C111.138 230.072 111.254 230.368 111.254 230.76V237.648H109.346L109.214 236.856C108.99 237.168 108.698 237.408 108.338 237.576C107.986 237.752 107.598 237.84 107.174 237.84ZM114.828 231.924C114.828 232.052 114.884 232.16 114.996 232.248C115.108 232.328 115.292 232.412 115.548 232.5L116.496 232.824C117.184 233.064 117.684 233.38 117.996 233.772C118.316 234.164 118.476 234.652 118.476 235.236C118.476 236.132 118.176 236.788 117.576 237.204C116.976 237.628 116.196 237.84 115.236 237.84C114.116 237.84 113.292 237.592 112.764 237.096C112.476 236.824 112.332 236.52 112.332 236.184C112.332 235.992 112.388 235.812 112.5 235.644C112.58 235.524 112.688 235.432 112.824 235.368C112.96 235.304 113.108 235.272 113.268 235.272C113.548 235.272 113.808 235.368 114.048 235.56C114.2 235.672 114.388 235.764 114.612 235.836C114.844 235.9 115.076 235.932 115.308 235.932C115.54 235.932 115.72 235.892 115.848 235.812C115.984 235.724 116.052 235.604 116.052 235.452C116.052 235.3 115.976 235.172 115.824 235.068C115.672 234.956 115.376 234.824 114.936 234.672L114.108 234.384C113.5 234.176 113.052 233.868 112.764 233.46C112.484 233.044 112.344 232.568 112.344 232.032C112.344 231.544 112.472 231.116 112.728 230.748C112.984 230.372 113.344 230.084 113.808 229.884C114.28 229.676 114.82 229.572 115.428 229.572C116.26 229.572 116.96 229.744 117.528 230.088C117.736 230.216 117.904 230.372 118.032 230.556C118.16 230.74 118.224 230.936 118.224 231.144C118.224 231.208 118.208 231.304 118.176 231.432C118.104 231.648 117.988 231.808 117.828 231.912C117.668 232.016 117.484 232.068 117.276 232.068C117.188 232.068 117.088 232.052 116.976 232.02C116.872 231.988 116.796 231.952 116.748 231.912C116.564 231.76 116.368 231.652 116.16 231.588C115.952 231.516 115.72 231.48 115.464 231.48C115.256 231.48 115.096 231.524 114.984 231.612C114.88 231.692 114.828 231.796 114.828 231.924Z" fill="white"/>
<path d="M110.309 31.568C110.309 30.416 110.661 29.56 111.365 29C112.061 28.44 112.965 28.16 114.077 28.16C114.813 28.16 115.497 28.288 116.129 28.544C116.753 28.792 117.261 29.188 117.653 29.732C118.045 30.284 118.241 30.976 118.241 31.808L118.241 35.42C118.241 36.26 118.045 36.952 117.653 37.496C117.261 38.04 116.749 38.436 116.117 38.684C115.485 38.94 114.793 39.068 114.041 39.068C113.505 39.068 113.009 39.012 112.553 38.9C112.089 38.796 111.737 38.656 111.497 38.48C111.321 38.36 111.185 38.212 111.089 38.036C110.985 37.868 110.933 37.692 110.933 37.508C110.933 37.34 110.973 37.188 111.053 37.052C111.149 36.876 111.281 36.744 111.449 36.656C111.609 36.568 111.781 36.524 111.965 36.524C112.117 36.524 112.269 36.556 112.421 36.62C112.565 36.684 112.693 36.74 112.805 36.788C113.085 36.892 113.497 36.944 114.041 36.944C114.337 36.944 114.621 36.88 114.893 36.752C115.157 36.632 115.373 36.448 115.541 36.2C115.709 35.96 115.793 35.664 115.793 35.312L115.793 31.916C115.793 31.396 115.625 30.992 115.289 30.704C114.953 30.424 114.549 30.284 114.077 30.284C113.637 30.284 113.265 30.392 112.961 30.608C112.657 30.824 112.505 31.132 112.505 31.532L112.505 32.18C112.505 32.3 112.525 32.376 112.565 32.408C112.597 32.44 112.669 32.456 112.781 32.456L113.177 32.456C113.497 32.456 113.737 32.556 113.897 32.756C114.057 32.956 114.137 33.192 114.137 33.464C114.137 33.736 114.057 33.976 113.897 34.184C113.729 34.4 113.489 34.508 113.177 34.508L112.085 34.508C111.605 34.508 111.241 34.452 110.993 34.34C110.737 34.228 110.561 34.044 110.465 33.788C110.361 33.54 110.309 33.184 110.309 32.72L110.309 31.568ZM104.798 28.856C105.03 28.632 105.306 28.46 105.626 28.34C105.938 28.212 106.27 28.148 106.622 28.148L106.886 28.148C107.27 28.148 107.65 28.228 108.026 28.388C108.394 28.54 108.706 28.804 108.962 29.18C109.218 29.564 109.346 30.064 109.346 30.68C109.346 31.576 109.074 32.216 108.53 32.6C107.986 32.992 107.278 33.188 106.406 33.188L105.17 33.188C105.178 33.668 105.282 33.992 105.482 34.16C105.674 34.336 105.938 34.424 106.274 34.424C106.506 34.424 106.774 34.38 107.078 34.292C107.174 34.26 107.266 34.224 107.354 34.184C107.442 34.144 107.538 34.1 107.642 34.052C107.77 33.988 107.906 33.956 108.05 33.956C108.234 33.956 108.406 34.004 108.566 34.1C108.726 34.196 108.846 34.324 108.926 34.484C108.99 34.612 109.022 34.752 109.022 34.904C109.022 35.072 108.982 35.228 108.902 35.372C108.814 35.524 108.694 35.656 108.542 35.768C108.246 35.984 107.874 36.144 107.426 36.248C106.978 36.36 106.53 36.416 106.082 36.416C105.074 36.416 104.278 36.16 103.694 35.648C103.102 35.144 102.806 34.22 102.806 32.876L102.806 28.352L104.702 28.352L104.798 28.856ZM106.262 31.424C106.734 31.424 106.97 31.18 106.97 30.692C106.97 30.228 106.746 29.996 106.298 29.996L106.13 29.996C105.882 29.996 105.662 30.072 105.47 30.224C105.27 30.376 105.17 30.592 105.17 30.872L105.17 31.424L106.262 31.424ZM101.549 35.228C101.549 35.604 101.433 35.896 101.201 36.104C100.961 36.32 100.673 36.428 100.337 36.428C100.097 36.428 99.877 36.368 99.677 36.248C99.469 36.136 99.317 35.972 99.221 35.756C98.997 35.972 98.749 36.136 98.477 36.248C98.197 36.368 97.913 36.428 97.625 36.428C97.409 36.428 97.221 36.396 97.061 36.332C96.861 36.244 96.705 36.108 96.593 35.924C96.473 35.748 96.413 35.54 96.413 35.3C96.413 34.964 96.513 34.692 96.713 34.484C96.913 34.276 97.165 34.172 97.469 34.172L97.841 34.172C98.225 34.172 98.529 34.08 98.753 33.896C98.977 33.72 99.097 33.472 99.113 33.152L99.113 28.352L101.549 28.352L101.549 35.228ZM90.8522 28.352L90.9722 29.132C91.2122 28.82 91.5042 28.58 91.8482 28.412C92.1842 28.236 92.5682 28.148 93.0002 28.148C93.8802 28.148 94.5882 28.404 95.1242 28.916C95.6602 29.428 95.9282 30.276 95.9282 31.46L95.9282 33.116C95.9282 34.3 95.6602 35.148 95.1242 35.66C94.5882 36.172 93.8802 36.428 93.0002 36.428C92.3762 36.428 91.8362 36.24 91.3802 35.864L91.3802 37.868C91.3802 38.244 91.2602 38.536 91.0202 38.744C90.7802 38.96 90.4922 39.068 90.1562 39.068C89.8202 39.068 89.5362 38.96 89.3042 38.744C89.0642 38.536 88.9442 38.244 88.9442 37.868L88.9442 28.352L90.8522 28.352ZM93.4562 31.292C93.4562 30.924 93.3482 30.648 93.1322 30.464C92.9162 30.288 92.6802 30.2 92.4242 30.2C92.1682 30.2 91.9322 30.288 91.7162 30.464C91.4922 30.648 91.3802 30.924 91.3802 31.292L91.3802 33.344C91.3802 33.688 91.4922 33.944 91.7162 34.112C91.9322 34.288 92.1682 34.376 92.4242 34.376C92.6802 34.376 92.9162 34.284 93.1322 34.1C93.3482 33.924 93.4562 33.652 93.4562 33.284L93.4562 31.292ZM84.1111 28.16C84.7671 28.16 85.3751 28.272 85.9351 28.496C86.4871 28.712 86.9391 29.072 87.2911 29.576C87.6351 30.088 87.8071 30.752 87.8071 31.568L87.8071 33.104C87.8071 33.904 87.6391 34.552 87.3031 35.048C86.9591 35.544 86.5311 35.896 86.0191 36.104C85.4991 36.32 84.9551 36.428 84.3871 36.428C83.3951 36.428 82.5951 36.14 81.9871 35.564C81.3791 34.988 81.0751 33.92 81.0751 32.36C81.0751 32.088 81.0951 31.84 81.1351 31.616L85.4311 31.616L85.4311 31.604C85.4311 31.092 85.2951 30.728 85.0231 30.512C84.7431 30.296 84.4231 30.188 84.0631 30.188C83.7831 30.188 83.5631 30.2 83.4031 30.224C83.2431 30.248 83.0751 30.288 82.8991 30.344C82.7871 30.384 82.6671 30.424 82.5391 30.464C82.4111 30.512 82.2911 30.536 82.1791 30.536C81.9951 30.536 81.8351 30.496 81.6991 30.416C81.5551 30.336 81.4511 30.22 81.3871 30.068C81.3231 29.916 81.2911 29.776 81.2911 29.648C81.2911 29.448 81.3551 29.26 81.4831 29.084C81.6031 28.916 81.7751 28.768 81.9991 28.64C82.2071 28.512 82.5111 28.4 82.9111 28.304C83.3031 28.208 83.7031 28.16 84.1111 28.16ZM84.3751 34.484C85.0711 34.484 85.4231 34.052 85.4311 33.188L83.4031 33.188C83.3711 34.052 83.6951 34.484 84.3751 34.484ZM79.9396 35.228C79.9396 35.604 79.8236 35.896 79.5916 36.104C79.3516 36.32 79.0636 36.428 78.7276 36.428C78.4876 36.428 78.2676 36.368 78.0676 36.248C77.8596 36.136 77.7076 35.976 77.6116 35.768C77.3796 35.984 77.1116 36.148 76.8076 36.26C76.4956 36.372 76.1796 36.428 75.8596 36.428C74.0356 36.428 73.1236 35.332 73.1236 33.14L73.1236 28.352L75.5956 28.352L75.5956 33.284C75.5956 33.652 75.6956 33.924 75.8956 34.1C76.0876 34.284 76.3036 34.376 76.5436 34.376C76.7916 34.376 77.0156 34.284 77.2156 34.1C77.4076 33.924 77.5036 33.652 77.5036 33.284L77.5036 28.352L79.9396 28.352L79.9396 35.228ZM65.8261 28.16C67.6501 28.16 68.5621 29.256 68.5621 31.448L68.5621 35.228C68.5621 35.62 68.4461 35.916 68.2141 36.116C67.9821 36.324 67.6861 36.428 67.3261 36.428C66.9661 36.428 66.6701 36.324 66.4381 36.116C66.2061 35.916 66.0901 35.62 66.0901 35.228L66.0901 31.304C66.0901 30.936 65.9941 30.66 65.8021 30.476C65.6021 30.3 65.3821 30.212 65.1421 30.212C64.9021 30.212 64.6821 30.296 64.4821 30.464C64.2821 30.632 64.1821 30.892 64.1821 31.244L64.1821 35.24C64.1821 35.632 64.0701 35.928 63.8461 36.128C63.6141 36.328 63.3221 36.428 62.9701 36.428C62.6101 36.428 62.3181 36.328 62.0941 36.128C61.8621 35.928 61.7461 35.632 61.7461 35.24L61.7461 28.352L63.6541 28.352L63.7861 29.144C64.0101 28.832 64.3021 28.592 64.6621 28.424C65.0141 28.248 65.4021 28.16 65.8261 28.16ZM58.1719 34.076C58.1719 33.948 58.1159 33.84 58.0039 33.752C57.8919 33.672 57.7079 33.588 57.4519 33.5L56.5039 33.176C55.8159 32.936 55.3159 32.62 55.0039 32.228C54.6839 31.836 54.5239 31.348 54.5239 30.764C54.5239 29.868 54.8239 29.212 55.4239 28.796C56.0239 28.372 56.8039 28.16 57.7639 28.16C58.8839 28.16 59.7079 28.408 60.2359 28.904C60.5239 29.176 60.6679 29.48 60.6679 29.816C60.6679 30.008 60.6119 30.188 60.4999 30.356C60.4199 30.476 60.3119 30.568 60.1759 30.632C60.0399 30.696 59.8919 30.728 59.7319 30.728C59.4519 30.728 59.1919 30.632 58.9519 30.44C58.7999 30.328 58.6119 30.236 58.3879 30.164C58.1559 30.1 57.9239 30.068 57.6919 30.068C57.4599 30.068 57.2799 30.108 57.1519 30.188C57.0159 30.276 56.9479 30.396 56.9479 30.548C56.9479 30.7 57.0239 30.828 57.1759 30.932C57.3279 31.044 57.6239 31.176 58.0639 31.328L58.8919 31.616C59.4999 31.824 59.9479 32.132 60.2359 32.54C60.5159 32.956 60.6559 33.432 60.6559 33.968C60.6559 34.456 60.5279 34.884 60.2719 35.252C60.0159 35.628 59.6559 35.916 59.1919 36.116C58.7199 36.324 58.1799 36.428 57.5719 36.428C56.7399 36.428 56.0399 36.256 55.4719 35.912C55.2639 35.784 55.0959 35.628 54.9679 35.444C54.8399 35.26 54.7759 35.064 54.7759 34.856C54.7759 34.792 54.7919 34.696 54.8239 34.568C54.8959 34.352 55.0119 34.192 55.1719 34.088C55.3319 33.984 55.5159 33.932 55.7239 33.932C55.8119 33.932 55.9119 33.948 56.0239 33.98C56.1279 34.012 56.2039 34.048 56.2519 34.088C56.4359 34.24 56.6319 34.348 56.8399 34.412C57.0479 34.484 57.2799 34.52 57.5359 34.52C57.7439 34.52 57.9039 34.476 58.0159 34.388C58.1199 34.308 58.1719 34.204 58.1719 34.076Z" fill="white"/>
<path d="M134.834 113.738C134.834 100.075 123.737 89 110.046 89C99.3602 89 90.2525 95.7495 86.7707 105.209C83.2889 95.7495 74.1813 89 63.4958 89C49.8048 89 38.707 100.075 38.707 113.738C38.707 153.584 86.7707 177 86.7707 177C86.7707 177 119.569 161.02 130.979 133H105.819" stroke="white" stroke-width="9.24841" stroke-linecap="round" stroke-linejoin="round"/>
<defs>
<filter id="filter0_d_7_1091" x="-14" y="-10" width="202" height="294" filterUnits="userSpaceOnUse" color-interpolation-filters="sRGB">
<feFlood flood-opacity="0" result="BackgroundImageFix"/>
<feColorMatrix in="SourceAlpha" type="matrix" values="0 0 0 0 0 0 0 0 0 0 0 0 0 0 0 0 0 0 127 0" result="hardAlpha"/>
<feOffset dy="4"/>
<feGaussianBlur stdDeviation="7"/>
<feComposite in2="hardAlpha" operator="out"/>
<feColorMatrix type="matrix" values="0 0 0 0 0 0 0 0 0 0 0 0 0 0 0 0 0 0 0.09 0"/>
<feBlend mode="normal" in2="BackgroundImageFix" result="effect1_dropShadow_7_1091"/>
<feBlend mode="normal" in="SourceGraphic" in2="effect1_dropShadow_7_1091" result="shape"/>
</filter>
</defs>
</svg>
