<svg width="61" height="60" viewBox="0 0 61 60" fill="none" xmlns="http://www.w3.org/2000/svg">
<path d="M20.8289 11.7055C25.6346 5.70285 34.7658 5.70285 39.5715 11.7055C40.9169 13.386 42.6894 14.6738 44.7034 15.4341C51.8973 18.1496 54.719 26.8339 50.4951 33.2593C49.3127 35.0582 48.6356 37.1419 48.535 39.2922C48.1754 46.9732 40.788 52.3404 33.3719 50.3088C31.2957 49.7401 29.1047 49.7401 27.0285 50.3088C19.6124 52.3404 12.225 46.9732 11.8654 39.2922C11.7648 37.1419 11.0877 35.0582 9.90524 33.2593C5.68138 26.8339 8.50309 18.1496 15.697 15.4341C17.711 14.6738 19.4835 13.386 20.8289 11.7055Z" fill="#FFA51F"/>
<circle cx="30.2" cy="30" r="16.8" fill="#FFDFAF"/>
<path d="M37.9173 22.8L34.731 25.4531L38.5448 26.3449" stroke="#272727" stroke-width="2.4" stroke-linecap="round" stroke-linejoin="round"/>
<path d="M22.4275 22.8L25.6138 25.4531L21.8 26.3449" stroke="#272727" stroke-width="2.4" stroke-linecap="round" stroke-linejoin="round"/>
<path d="M31.2543 26.9999C32.6602 26.9999 33.8358 28.1542 33.5259 29.5256C33.345 30.3264 33.0799 31.0539 32.7456 31.6668C32.4113 32.2797 32.0144 32.7658 31.5776 33.0975C31.1409 33.4292 30.6727 33.5999 30.2 33.5999C29.7272 33.5999 29.2591 33.4292 28.8223 33.0975C28.3855 32.7658 27.9887 32.2797 27.6544 31.6668C27.3201 31.0539 27.0549 30.3264 26.874 29.5256C26.5642 28.1542 27.7397 26.9999 29.1457 26.9999H30.2H31.2543Z" fill="#272727"/>
</svg>
