<svg width="61" height="60" viewBox="0 0 61 60" fill="none" xmlns="http://www.w3.org/2000/svg">
<path d="M21.4285 11.7055C26.2342 5.70285 35.3654 5.70285 40.1711 11.7055C41.5165 13.386 43.289 14.6738 45.303 15.4341C52.4969 18.1496 55.3186 26.8339 51.0948 33.2593C49.9123 35.0582 49.2352 37.1419 49.1346 39.2922C48.775 46.9732 41.3876 52.3404 33.9715 50.3088C31.8953 49.7401 29.7043 49.7401 27.6281 50.3088C20.212 52.3404 12.8246 46.9732 12.465 39.2922C12.3644 37.1419 11.6873 35.0582 10.5049 33.2593C6.28099 26.8339 9.1027 18.1496 16.2966 15.4341C18.3106 14.6738 20.0831 13.386 21.4285 11.7055Z" fill="#FFA51F"/>
<circle cx="30.8" cy="30" r="16.8" fill="#FFDFAF"/>
<path d="M35.6 24H39.2" stroke="#272727" stroke-width="2.4" stroke-linecap="round"/>
<path d="M22.4 24H26" stroke="#272727" stroke-width="2.4" stroke-linecap="round"/>
<path d="M28.378 27.6C27.7274 27.6 27.1819 27.059 27.391 26.4429C27.4163 26.3686 27.4439 26.295 27.4741 26.2223C27.655 25.7855 27.9201 25.3887 28.2544 25.0544C28.5887 24.7201 28.9856 24.4549 29.4224 24.274C29.8591 24.0931 30.3273 24 30.8 24C31.2728 24 31.7409 24.0931 32.1777 24.274C32.6145 24.4549 33.0113 24.7201 33.3456 25.0544C33.6799 25.3887 33.9451 25.7855 34.126 26.2223C34.1561 26.295 34.1838 26.3686 34.209 26.4429C34.4181 27.059 33.8726 27.6 33.2221 27.6L32.5327 27.6C32.2629 27.6 32.0527 27.3731 31.9495 27.1238C31.8869 26.9729 31.7953 26.8357 31.6798 26.7202C31.5642 26.6047 31.4271 26.513 31.2761 26.4505C31.1252 26.388 30.9634 26.3558 30.8 26.3558C30.6366 26.3558 30.4749 26.388 30.3239 26.4505C30.173 26.513 30.0358 26.6047 29.9203 26.7202C29.8048 26.8357 29.7131 26.9729 29.6506 27.1238C29.5473 27.3731 29.3371 27.6 29.0673 27.6L28.378 27.6Z" fill="#272727"/>
</svg>
