<svg width="60" height="60" viewBox="0 0 60 60" fill="none" xmlns="http://www.w3.org/2000/svg">
<path d="M20.6287 11.7055C25.4344 5.70285 34.5656 5.70285 39.3713 11.7055C40.7167 13.386 42.4892 14.6738 44.5032 15.4341C51.6971 18.1496 54.5188 26.8339 50.295 33.2593C49.1125 35.0582 48.4354 37.1419 48.3348 39.2922C47.9752 46.9732 40.5878 52.3404 33.1717 50.3088C31.0955 49.7401 28.9045 49.7401 26.8283 50.3088C19.4122 52.3404 12.0248 46.9732 11.6652 39.2922C11.5646 37.1419 10.8875 35.0582 9.70505 33.2593C5.48118 26.8339 8.3029 18.1496 15.4968 15.4341C17.5108 14.6738 19.2833 13.386 20.6287 11.7055Z" fill="#FFA51F"/>
<circle cx="30" cy="30" r="16.8" fill="#FFDFAF"/>
<circle cx="23.4" cy="24.6" r="1.8" fill="#272727"/>
<circle cx="36.5999" cy="24.6" r="1.8" fill="#272727"/>
<path d="M32.1863 27.6C32.9671 27.6 33.6248 28.2563 33.326 28.9777C33.1451 29.4144 32.8799 29.8113 32.5456 30.1456C32.2113 30.4799 31.8145 30.745 31.3777 30.926C30.9409 31.1069 30.4728 31.2 30 31.2C29.5273 31.2 29.0591 31.1069 28.6224 30.926C28.1856 30.745 27.7887 30.4799 27.4544 30.1456C27.1201 29.8113 26.855 29.4144 26.6741 28.9777C26.3753 28.2563 27.033 27.6 27.8137 27.6L30 27.6H32.1863Z" fill="#272727"/>
</svg>
