<svg width="18" height="19" viewBox="0 0 18 19" fill="none" xmlns="http://www.w3.org/2000/svg">
<path fill-rule="evenodd" clip-rule="evenodd" d="M17.64 9.70443C17.64 9.06625 17.5827 8.45262 17.4764 7.86353H9V11.3449H13.8436C13.635 12.4699 13.0009 13.4231 12.0477 14.0613V16.3194H14.9564C16.6582 14.7526 17.64 12.4453 17.64 9.70443Z" fill="#4285F4"/>
<path fill-rule="evenodd" clip-rule="evenodd" d="M9 18.5C11.43 18.5 13.4673 17.6941 14.9564 16.3195L12.0477 14.0613C11.2418 14.6013 10.2109 14.9204 9 14.9204C6.65591 14.9204 4.67182 13.3372 3.96409 11.21H0.957275V13.5418C2.43818 16.4831 5.48182 18.5 9 18.5Z" fill="#34A853"/>
<path fill-rule="evenodd" clip-rule="evenodd" d="M3.96409 11.2101C3.78409 10.6701 3.68182 10.0933 3.68182 9.50007C3.68182 8.90689 3.78409 8.33007 3.96409 7.79007V5.45825H0.957273C0.347727 6.67325 0 8.0478 0 9.50007C0 10.9523 0.347727 12.3269 0.957273 13.5419L3.96409 11.2101Z" fill="#FBBC05"/>
<path fill-rule="evenodd" clip-rule="evenodd" d="M9 4.07955C10.3214 4.07955 11.5077 4.53364 12.4405 5.42545L15.0218 2.84409C13.4632 1.39182 11.4259 0.5 9 0.5C5.48182 0.5 2.43818 2.51682 0.957275 5.45818L3.96409 7.79C4.67182 5.66273 6.65591 4.07955 9 4.07955Z" fill="#EA4335"/>
</svg>
