<svg width="22" height="22" viewBox="0 0 22 22" fill="none" xmlns="http://www.w3.org/2000/svg">
<path fill-rule="evenodd" clip-rule="evenodd" d="M17.0213 11.0568C17.5923 10.3307 17.9999 9.44972 17.9999 8.5C17.9999 6.01472 16.209 4 13.9999 4C11.7908 4 9.9999 6.01472 9.9999 8.5C9.9999 9.44974 10.4075 10.3308 10.9786 11.0569C8.10241 11.9958 6 14.9819 6 18.5203C6 20.4421 7.38479 22 9.09302 22H18.907C20.6152 22 22 20.4421 22 18.5203C22 14.9818 19.8975 11.9957 17.0213 11.0568Z" fill="#EBEBED"/>
<path fill-rule="evenodd" clip-rule="evenodd" d="M10.1745 4.82978C9.30933 5.74311 8.76772 7.04942 8.76772 8.5C8.76772 9.35424 9.04426 10.1383 9.44655 10.8096C6.74065 12.0097 4.82227 15.009 4.82227 18.5204C4.82227 20.0168 5.54648 21.3204 6.61698 22H3.05092C1.36594 22 0 20.4421 0 18.5204C0 14.9819 2.07379 11.9958 4.91082 11.0569C4.34748 10.3308 3.94546 9.44974 3.94546 8.5C3.94546 6.01472 5.71195 4 7.89102 4C8.74197 4 9.53001 4.30725 10.1745 4.82978Z" fill="#EBEBED"/>
</svg>
