<svg width="22" height="22" viewBox="0 0 22 22" fill="none" xmlns="http://www.w3.org/2000/svg">
<path fill-rule="evenodd" clip-rule="evenodd" d="M5.33333 2C4.59695 2 4 2.59695 4 3.33333V20.6667C4 21.403 4.59695 22 5.33333 22H16.6667C17.403 22 18 21.403 18 20.6667V3.33333C18 2.59695 17.403 2 16.6667 2H5.33333ZM7.33333 3.5C6.32081 3.5 5.5 4.32081 5.5 5.33333V18.6667C5.5 19.6792 6.32081 20.5 7.33333 20.5H14.6667C15.6792 20.5 16.5 19.6792 16.5 18.6667V5.33333C16.5 4.32081 15.6792 3.5 14.6667 3.5H7.33333ZM6.5 5.33333C6.5 4.8731 6.8731 4.5 7.33333 4.5H14.6667C15.1269 4.5 15.5 4.8731 15.5 5.33333V18.6667C15.5 19.1269 15.1269 19.5 14.6667 19.5H7.33333C6.8731 19.5 6.5 19.1269 6.5 18.6667V5.33333Z" fill="#EBEBED"/>
</svg>
